<svg xmlns="http://www.w3.org/2000/svg" viewBox="0 0 400 140">
  <rect width="400" height="140" fill="#1c1e1f"/>
  <line x1="51.4" y1="32.9" x2="78.6" y2="17.1" stroke="#8a847e" stroke-width="0.8" stroke-dasharray="2,3" opacity="0.65"/>
  <line x1="96.4" y1="32.9" x2="123.6" y2="17.1" stroke="#8a847e" stroke-width="0.8" stroke-dasharray="2,3" opacity="0.65"/>
  <line x1="141.4" y1="32.9" x2="168.6" y2="17.1" stroke="#8a847e" stroke-width="0.8" stroke-dasharray="2,3" opacity="0.65"/>
  <line x1="186.4" y1="32.9" x2="213.6" y2="17.1" stroke="#8a847e" stroke-width="0.8" stroke-dasharray="2,3" opacity="0.65"/>
  <line x1="231.4" y1="32.9" x2="258.6" y2="17.1" stroke="#8a847e" stroke-width="0.8" stroke-dasharray="2,3" opacity="0.65"/>
  <line x1="276.4" y1="32.9" x2="303.6" y2="17.1" stroke="#8a847e" stroke-width="0.8" stroke-dasharray="2,3" opacity="0.65"/>
  <line x1="321.4" y1="32.9" x2="348.6" y2="17.1" stroke="#8a847e" stroke-width="0.8" stroke-dasharray="2,3" opacity="0.65"/>
  <line x1="51.4" y1="77.9" x2="78.6" y2="62.1" stroke="#8a847e" stroke-width="0.8" stroke-dasharray="2,3" opacity="0.65"/>
  <line x1="96.4" y1="77.9" x2="123.6" y2="62.1" stroke="#8a847e" stroke-width="0.8" stroke-dasharray="2,3" opacity="0.65"/>
  <line x1="141.4" y1="77.9" x2="168.6" y2="62.1" stroke="#8a847e" stroke-width="0.8" stroke-dasharray="2,3" opacity="0.65"/>
  <line x1="186.4" y1="77.9" x2="213.6" y2="62.1" stroke="#8a847e" stroke-width="0.8" stroke-dasharray="2,3" opacity="0.65"/>
  <line x1="231.4" y1="77.9" x2="258.6" y2="62.1" stroke="#8a847e" stroke-width="0.8" stroke-dasharray="2,3" opacity="0.65"/>
  <line x1="276.4" y1="77.9" x2="303.6" y2="62.1" stroke="#8a847e" stroke-width="0.8" stroke-dasharray="2,3" opacity="0.65"/>
  <line x1="321.4" y1="77.9" x2="348.6" y2="62.1" stroke="#8a847e" stroke-width="0.8" stroke-dasharray="2,3" opacity="0.65"/>
  <line x1="51.4" y1="122.9" x2="78.6" y2="107.1" stroke="#8a847e" stroke-width="0.8" stroke-dasharray="2,3" opacity="0.65"/>
  <line x1="96.4" y1="122.9" x2="123.6" y2="107.1" stroke="#8a847e" stroke-width="0.8" stroke-dasharray="2,3" opacity="0.65"/>
  <line x1="141.4" y1="122.9" x2="168.6" y2="107.1" stroke="#8a847e" stroke-width="0.8" stroke-dasharray="2,3" opacity="0.65"/>
  <line x1="186.4" y1="122.9" x2="213.6" y2="107.1" stroke="#8a847e" stroke-width="0.8" stroke-dasharray="2,3" opacity="0.65"/>
  <line x1="231.4" y1="122.9" x2="258.6" y2="107.1" stroke="#8a847e" stroke-width="0.8" stroke-dasharray="2,3" opacity="0.65"/>
  <line x1="276.4" y1="122.9" x2="303.6" y2="107.1" stroke="#8a847e" stroke-width="0.8" stroke-dasharray="2,3" opacity="0.65"/>
  <line x1="321.4" y1="122.9" x2="348.6" y2="107.1" stroke="#8a847e" stroke-width="0.8" stroke-dasharray="2,3" opacity="0.65"/>
  <line x1="78.6" y1="17.1" x2="123.6" y2="17.1" stroke="#8a847e" stroke-width="0.8" stroke-dasharray="2,3" opacity="0.65"/>
  <line x1="78.6" y1="17.1" x2="78.6" y2="62.1" stroke="#8a847e" stroke-width="0.8" stroke-dasharray="2,3" opacity="0.65"/>
  <line x1="123.6" y1="17.1" x2="168.6" y2="17.1" stroke="#8a847e" stroke-width="0.8" stroke-dasharray="2,3" opacity="0.65"/>
  <line x1="123.6" y1="17.1" x2="123.6" y2="62.1" stroke="#8a847e" stroke-width="0.8" stroke-dasharray="2,3" opacity="0.65"/>
  <line x1="168.6" y1="17.1" x2="213.6" y2="17.1" stroke="#8a847e" stroke-width="0.8" stroke-dasharray="2,3" opacity="0.65"/>
  <line x1="168.6" y1="17.1" x2="168.6" y2="62.1" stroke="#8a847e" stroke-width="0.8" stroke-dasharray="2,3" opacity="0.65"/>
  <line x1="213.6" y1="17.1" x2="258.6" y2="17.1" stroke="#8a847e" stroke-width="0.8" stroke-dasharray="2,3" opacity="0.65"/>
  <line x1="213.6" y1="17.1" x2="213.6" y2="62.1" stroke="#8a847e" stroke-width="0.8" stroke-dasharray="2,3" opacity="0.65"/>
  <line x1="258.6" y1="17.1" x2="303.6" y2="17.1" stroke="#8a847e" stroke-width="0.8" stroke-dasharray="2,3" opacity="0.65"/>
  <line x1="258.6" y1="17.1" x2="258.6" y2="62.1" stroke="#8a847e" stroke-width="0.8" stroke-dasharray="2,3" opacity="0.65"/>
  <line x1="303.6" y1="17.1" x2="348.6" y2="17.1" stroke="#8a847e" stroke-width="0.8" stroke-dasharray="2,3" opacity="0.65"/>
  <line x1="303.6" y1="17.1" x2="303.6" y2="62.1" stroke="#8a847e" stroke-width="0.8" stroke-dasharray="2,3" opacity="0.65"/>
  <line x1="348.6" y1="17.1" x2="348.6" y2="62.1" stroke="#8a847e" stroke-width="0.8" stroke-dasharray="2,3" opacity="0.65"/>
  <line x1="78.6" y1="62.1" x2="123.6" y2="62.1" stroke="#8a847e" stroke-width="0.8" stroke-dasharray="2,3" opacity="0.65"/>
  <line x1="78.6" y1="62.1" x2="78.6" y2="107.1" stroke="#8a847e" stroke-width="0.8" stroke-dasharray="2,3" opacity="0.65"/>
  <line x1="123.6" y1="62.1" x2="168.6" y2="62.1" stroke="#8a847e" stroke-width="0.8" stroke-dasharray="2,3" opacity="0.65"/>
  <line x1="123.6" y1="62.1" x2="123.6" y2="107.1" stroke="#8a847e" stroke-width="0.8" stroke-dasharray="2,3" opacity="0.65"/>
  <line x1="168.6" y1="62.1" x2="213.6" y2="62.1" stroke="#8a847e" stroke-width="0.8" stroke-dasharray="2,3" opacity="0.65"/>
  <line x1="168.6" y1="62.1" x2="168.6" y2="107.1" stroke="#8a847e" stroke-width="0.8" stroke-dasharray="2,3" opacity="0.65"/>
  <line x1="213.6" y1="62.1" x2="258.6" y2="62.1" stroke="#8a847e" stroke-width="0.8" stroke-dasharray="2,3" opacity="0.65"/>
  <line x1="213.6" y1="62.1" x2="213.6" y2="107.1" stroke="#8a847e" stroke-width="0.8" stroke-dasharray="2,3" opacity="0.65"/>
  <line x1="258.6" y1="62.1" x2="303.6" y2="62.1" stroke="#8a847e" stroke-width="0.8" stroke-dasharray="2,3" opacity="0.65"/>
  <line x1="258.6" y1="62.1" x2="258.6" y2="107.1" stroke="#8a847e" stroke-width="0.8" stroke-dasharray="2,3" opacity="0.65"/>
  <line x1="303.6" y1="62.1" x2="348.6" y2="62.1" stroke="#8a847e" stroke-width="0.8" stroke-dasharray="2,3" opacity="0.65"/>
  <line x1="303.6" y1="62.1" x2="303.6" y2="107.1" stroke="#8a847e" stroke-width="0.8" stroke-dasharray="2,3" opacity="0.65"/>
  <line x1="348.6" y1="62.1" x2="348.6" y2="107.1" stroke="#8a847e" stroke-width="0.8" stroke-dasharray="2,3" opacity="0.65"/>
  <line x1="78.6" y1="107.1" x2="123.6" y2="107.1" stroke="#8a847e" stroke-width="0.8" stroke-dasharray="2,3" opacity="0.65"/>
  <line x1="123.6" y1="107.1" x2="168.6" y2="107.1" stroke="#8a847e" stroke-width="0.8" stroke-dasharray="2,3" opacity="0.65"/>
  <line x1="168.6" y1="107.1" x2="213.6" y2="107.1" stroke="#8a847e" stroke-width="0.8" stroke-dasharray="2,3" opacity="0.65"/>
  <line x1="213.6" y1="107.1" x2="258.6" y2="107.1" stroke="#8a847e" stroke-width="0.8" stroke-dasharray="2,3" opacity="0.65"/>
  <line x1="258.6" y1="107.1" x2="303.6" y2="107.1" stroke="#8a847e" stroke-width="0.8" stroke-dasharray="2,3" opacity="0.65"/>
  <line x1="303.6" y1="107.1" x2="348.6" y2="107.1" stroke="#8a847e" stroke-width="0.8" stroke-dasharray="2,3" opacity="0.65"/>
  <circle cx="78.6" cy="17.1" r="2.8" fill="#3a6478"/>
  <circle cx="123.6" cy="17.1" r="2.8" fill="#446876"/>
  <circle cx="168.6" cy="17.1" r="2.8" fill="#516d73"/>
  <circle cx="213.6" cy="17.1" r="2.8" fill="#5f7371"/>
  <circle cx="258.6" cy="17.1" r="2.8" fill="#6c786e"/>
  <circle cx="303.6" cy="17.1" r="2.8" fill="#7a7d6c"/>
  <circle cx="348.6" cy="17.1" r="2.8" fill="#878269"/>
  <circle cx="78.6" cy="62.1" r="2.8" fill="#3a6478"/>
  <circle cx="123.6" cy="62.1" r="2.8" fill="#476975"/>
  <circle cx="168.6" cy="62.1" r="2.8" fill="#556f73"/>
  <circle cx="213.6" cy="62.1" r="2.8" fill="#627470"/>
  <circle cx="258.6" cy="62.1" r="2.8" fill="#70796e"/>
  <circle cx="303.6" cy="62.1" r="2.8" fill="#7d7e6b"/>
  <circle cx="348.6" cy="62.1" r="2.8" fill="#8a8468"/>
  <circle cx="78.6" cy="107.1" r="2.8" fill="#3d6577"/>
  <circle cx="123.6" cy="107.1" r="2.8" fill="#4b6b75"/>
  <circle cx="168.6" cy="107.1" r="2.8" fill="#587072"/>
  <circle cx="213.6" cy="107.1" r="2.8" fill="#667570"/>
  <circle cx="258.6" cy="107.1" r="2.8" fill="#737b6d"/>
  <circle cx="303.6" cy="107.1" r="2.8" fill="#80806a"/>
  <circle cx="348.6" cy="107.1" r="2.8" fill="#8e8568"/>
  <line x1="51.4" y1="32.9" x2="96.4" y2="32.9" stroke="#8a847e" stroke-width="0.8" stroke-dasharray="2,3" opacity="0.65"/>
  <line x1="51.4" y1="32.9" x2="51.4" y2="77.9" stroke="#8a847e" stroke-width="0.8" stroke-dasharray="2,3" opacity="0.65"/>
  <line x1="96.4" y1="32.9" x2="141.4" y2="32.9" stroke="#8a847e" stroke-width="0.8" stroke-dasharray="2,3" opacity="0.65"/>
  <line x1="96.4" y1="32.9" x2="96.4" y2="77.9" stroke="#8a847e" stroke-width="0.8" stroke-dasharray="2,3" opacity="0.65"/>
  <line x1="141.4" y1="32.9" x2="186.4" y2="32.9" stroke="#8a847e" stroke-width="0.8" stroke-dasharray="2,3" opacity="0.65"/>
  <line x1="141.4" y1="32.9" x2="141.4" y2="77.9" stroke="#8a847e" stroke-width="0.8" stroke-dasharray="2,3" opacity="0.65"/>
  <line x1="186.4" y1="32.9" x2="231.4" y2="32.9" stroke="#8a847e" stroke-width="0.8" stroke-dasharray="2,3" opacity="0.65"/>
  <line x1="186.4" y1="32.9" x2="186.4" y2="77.9" stroke="#8a847e" stroke-width="0.8" stroke-dasharray="2,3" opacity="0.65"/>
  <line x1="231.4" y1="32.9" x2="276.4" y2="32.9" stroke="#8a847e" stroke-width="0.8" stroke-dasharray="2,3" opacity="0.65"/>
  <line x1="231.4" y1="32.9" x2="231.4" y2="77.9" stroke="#8a847e" stroke-width="0.8" stroke-dasharray="2,3" opacity="0.65"/>
  <line x1="276.4" y1="32.9" x2="321.4" y2="32.9" stroke="#8a847e" stroke-width="0.8" stroke-dasharray="2,3" opacity="0.65"/>
  <line x1="276.4" y1="32.9" x2="276.4" y2="77.9" stroke="#8a847e" stroke-width="0.8" stroke-dasharray="2,3" opacity="0.65"/>
  <line x1="321.4" y1="32.9" x2="321.4" y2="77.9" stroke="#8a847e" stroke-width="0.8" stroke-dasharray="2,3" opacity="0.65"/>
  <line x1="51.4" y1="77.9" x2="96.4" y2="77.9" stroke="#8a847e" stroke-width="0.8" stroke-dasharray="2,3" opacity="0.65"/>
  <line x1="51.4" y1="77.9" x2="51.4" y2="122.9" stroke="#8a847e" stroke-width="0.8" stroke-dasharray="2,3" opacity="0.65"/>
  <line x1="96.4" y1="77.9" x2="141.4" y2="77.9" stroke="#8a847e" stroke-width="0.8" stroke-dasharray="2,3" opacity="0.65"/>
  <line x1="96.4" y1="77.9" x2="96.4" y2="122.9" stroke="#8a847e" stroke-width="0.8" stroke-dasharray="2,3" opacity="0.65"/>
  <line x1="141.4" y1="77.9" x2="186.4" y2="77.9" stroke="#8a847e" stroke-width="0.8" stroke-dasharray="2,3" opacity="0.65"/>
  <line x1="141.4" y1="77.9" x2="141.4" y2="122.9" stroke="#8a847e" stroke-width="0.8" stroke-dasharray="2,3" opacity="0.65"/>
  <line x1="186.4" y1="77.9" x2="231.4" y2="77.9" stroke="#8a847e" stroke-width="0.8" stroke-dasharray="2,3" opacity="0.65"/>
  <line x1="186.4" y1="77.9" x2="186.4" y2="122.9" stroke="#8a847e" stroke-width="0.8" stroke-dasharray="2,3" opacity="0.65"/>
  <line x1="231.4" y1="77.9" x2="276.4" y2="77.9" stroke="#8a847e" stroke-width="0.8" stroke-dasharray="2,3" opacity="0.65"/>
  <line x1="231.4" y1="77.9" x2="231.4" y2="122.9" stroke="#8a847e" stroke-width="0.8" stroke-dasharray="2,3" opacity="0.65"/>
  <line x1="276.4" y1="77.9" x2="321.4" y2="77.9" stroke="#8a847e" stroke-width="0.8" stroke-dasharray="2,3" opacity="0.65"/>
  <line x1="276.4" y1="77.9" x2="276.4" y2="122.9" stroke="#8a847e" stroke-width="0.8" stroke-dasharray="2,3" opacity="0.65"/>
  <line x1="321.4" y1="77.9" x2="321.4" y2="122.9" stroke="#8a847e" stroke-width="0.8" stroke-dasharray="2,3" opacity="0.65"/>
  <line x1="51.4" y1="122.9" x2="96.4" y2="122.9" stroke="#8a847e" stroke-width="0.8" stroke-dasharray="2,3" opacity="0.65"/>
  <line x1="96.4" y1="122.9" x2="141.4" y2="122.9" stroke="#8a847e" stroke-width="0.8" stroke-dasharray="2,3" opacity="0.65"/>
  <line x1="141.4" y1="122.9" x2="186.4" y2="122.9" stroke="#8a847e" stroke-width="0.8" stroke-dasharray="2,3" opacity="0.65"/>
  <line x1="186.4" y1="122.9" x2="231.4" y2="122.9" stroke="#8a847e" stroke-width="0.8" stroke-dasharray="2,3" opacity="0.65"/>
  <line x1="231.4" y1="122.9" x2="276.4" y2="122.9" stroke="#8a847e" stroke-width="0.8" stroke-dasharray="2,3" opacity="0.65"/>
  <line x1="276.4" y1="122.9" x2="321.4" y2="122.9" stroke="#8a847e" stroke-width="0.8" stroke-dasharray="2,3" opacity="0.65"/>
  <circle cx="51.4" cy="32.9" r="3.5" fill="#6c786e"/>
  <circle cx="96.4" cy="32.9" r="3.5" fill="#7a7d6c"/>
  <circle cx="141.4" cy="32.9" r="3.5" fill="#878269"/>
  <circle cx="186.4" cy="32.9" r="3.5" fill="#948866"/>
  <circle cx="231.4" cy="32.9" r="3.5" fill="#a28d64"/>
  <circle cx="276.4" cy="32.9" r="3.5" fill="#af9261"/>
  <circle cx="321.4" cy="32.9" r="3.5" fill="#bd985f"/>
  <circle cx="51.4" cy="77.9" r="3.5" fill="#70796e"/>
  <circle cx="96.4" cy="77.9" r="3.5" fill="#7d7e6b"/>
  <circle cx="141.4" cy="77.9" r="3.5" fill="#8a8468"/>
  <circle cx="186.4" cy="77.9" r="3.5" fill="#988966"/>
  <circle cx="231.4" cy="77.9" r="3.5" fill="#a58e63"/>
  <circle cx="276.4" cy="77.9" r="3.5" fill="#b39461"/>
  <circle cx="321.4" cy="77.9" r="3.5" fill="#c0995e"/>
  <circle cx="51.4" cy="122.9" r="3.5" fill="#737b6d"/>
  <circle cx="96.4" cy="122.9" r="3.5" fill="#80806a"/>
  <circle cx="141.4" cy="122.9" r="3.5" fill="#8e8568"/>
  <circle cx="186.4" cy="122.9" r="3.5" fill="#9b8a65"/>
  <circle cx="231.4" cy="122.9" r="3.5" fill="#a99063"/>
  <circle cx="276.4" cy="122.9" r="3.5" fill="#b69560"/>
  <circle cx="321.4" cy="122.9" r="3.5" fill="#c0995e"/>
</svg>
